<?xml version="1.0" encoding="UTF-8"?>
<!DOCTYPE svg PUBLIC "-//W3C//DTD SVG 1.1//EN" "http://www.w3.org/Graphics/SVG/1.1/DTD/svg11.dtd">
<svg xmlns="http://www.w3.org/2000/svg" version="1.1" width="64px" height="64px" style="shape-rendering:geometricPrecision; text-rendering:geometricPrecision; image-rendering:optimizeQuality; fill-rule:evenodd; clip-rule:evenodd" xmlns:xlink="http://www.w3.org/1999/xlink">
<g><path style="opacity:0.585" fill="#000000" d="M 38.5,-0.5 C 40.1667,-0.5 41.8333,-0.5 43.5,-0.5C 44.9972,0.305771 46.6639,0.972438 48.5,1.5C 50.0897,4.16988 49.423,5.83655 46.5,6.5C 46.6716,5.50838 46.3382,4.84171 45.5,4.5C 45.5,3.83333 45.1667,3.5 44.5,3.5C 42.983,2.26506 41.3163,2.26506 39.5,3.5C 38.5713,2.31116 38.238,0.977822 38.5,-0.5 Z"/></g>
<g><path style="opacity:0.827" fill="#000000" d="M 44.5,3.5 C 45.1667,3.5 45.5,3.83333 45.5,4.5C 45.3284,5.49162 45.6618,6.15829 46.5,6.5C 47.8772,10.7783 48.7106,15.1116 49,19.5C 45.6064,20.4558 42.1064,20.7892 38.5,20.5C 37.7888,29.237 38.7888,37.737 41.5,46C 40.2277,51.8639 38.8943,57.6972 37.5,63.5C 35.8333,63.5 34.1667,63.5 32.5,63.5C 31.7681,57.9479 32.4348,52.4479 34.5,47C 33.6667,44.5 32.8333,42 32,39.5C 28.1581,38.2052 24.3247,38.3718 20.5,40C 22.5808,43.3587 23.2474,46.8587 22.5,50.5C 20.5328,50.7394 18.6995,50.4061 17,49.5C 15.5,45.6667 14,41.8333 12.5,38C 12.7804,36.605 13.4471,35.4383 14.5,34.5C 17.7131,33.5731 20.8797,32.5731 24,31.5C 24.4986,27.8484 24.6653,24.1817 24.5,20.5C 20.8936,20.7892 17.3936,20.4558 14,19.5C 13.6015,14.1825 14.7681,9.18255 17.5,4.5C 19.0064,3.25278 20.5064,3.25278 22,4.5C 22.0475,7.87758 21.5475,11.2109 20.5,14.5C 23.8499,14.665 27.1832,14.4983 30.5,14C 26.1946,12.4115 25.028,9.57814 27,5.5C 29.627,3.01175 32.4603,2.84508 35.5,5C 37.4441,9.03478 36.4441,12.0348 32.5,14C 35.8333,14.6667 39.1667,14.6667 42.5,14C 40.7563,11.0375 40.2563,7.8708 41,4.5C 42.0113,3.66337 43.1779,3.33003 44.5,3.5 Z"/></g>
<g><path style="opacity:0.729" fill="#000000" d="M 11.5,22.5 C 16.3394,21.6766 18.6728,23.6766 18.5,28.5C 15.8239,29.0081 13.1572,29.1747 10.5,29C 9.14427,26.5859 9.47761,24.4193 11.5,22.5 Z"/></g>
<g><path style="opacity:0.759" fill="#000000" d="M 47.5,43.5 C 51.7985,43.347 53.7985,45.347 53.5,49.5C 50.1651,50.3388 46.8318,50.8388 43.5,51C 41.9633,47.0245 43.2966,44.5245 47.5,43.5 Z"/></g>
<g><path style="opacity:0.727" fill="#000000" d="M 22.5,50.5 C 24.4841,50.484 25.4841,51.484 25.5,53.5C 25.4096,55.4251 24.4096,56.5917 22.5,57C 18.4737,58.3366 15.4737,57.1699 13.5,53.5C 13.9996,52.1195 14.9996,51.4528 16.5,51.5C 18.9784,53.1526 20.9784,52.8193 22.5,50.5 Z"/></g>
</svg>
