<svg fill="#2D2D2D" height="368pt" viewBox="-64 0 368 368" width="368pt" xmlns="http://www.w3.org/2000/svg"><path d="m88 368h64c4.414062 0 8-3.574219 8-8v-95c.464844-.167969.921875-.335938 1.382812-.503906 1.746094-.640625 3.527344-1.199219 5.242188-1.921875 1.03125-.429688 1.992188-.980469 3.007812-1.445313 4.910157-2.242187 9.632813-4.808594 14.167969-7.671875 1.152344-.730469 2.34375-1.378906 3.472657-2.144531 2.023437-1.375 3.933593-2.898438 5.871093-4.390625 1.222657-.945313 2.488281-1.84375 3.671875-2.832031 1.792969-1.496094 3.472656-3.105469 5.175782-4.707032 1.222656-1.144531 2.464843-2.261718 3.632812-3.453124 1.550781-1.59375 3.015625-3.265626 4.488281-4.9375 1.191407-1.359376 2.390625-2.71875 3.527344-4.136719 1.3125-1.648438 2.558594-3.34375 3.792969-5.0625 1.140625-1.59375 2.269531-3.199219 3.335937-4.855469 1.085938-1.679688 2.117188-3.394531 3.117188-5.136719 1.050781-1.816406 2.050781-3.664062 3.007812-5.542969.488281-.953124 1.066407-1.851562 1.53125-2.816406.167969-.351562.246094-.730468.359375-1.105468 7.125-15.328126 11.214844-32.34375 11.214844-50.335938v-32c0-66.167969-53.832031-120-120-120s-120 53.832031-120 120v32c0 17.992188 4.089844 35.007812 11.214844 50.335938.113281.367187.191406.742187.359375 1.105468.464843.964844 1.042969 1.863282 1.53125 2.816406.957031 1.878907 1.949219 3.71875 3.007812 5.542969 1.007813 1.742188 2.039063 3.457031 3.117188 5.136719 1.066406 1.648438 2.183593 3.253906 3.335937 4.847656 1.234375 1.71875 2.480469 3.421875 3.800782 5.070313 1.128906 1.410156 2.320312 2.761719 3.511718 4.113281 1.472656 1.679688 2.945313 3.359375 4.503906 4.960938 1.160157 1.183593 2.394532 2.285156 3.601563 3.421874 1.710937 1.609376 3.40625 3.234376 5.214844 4.738282 1.160156.964844 2.394531 1.847656 3.59375 2.765625 1.960937 1.519531 3.902343 3.066406 5.960937 4.457031 1.039063.703125 2.140625 1.304688 3.207032 1.976562 5.335937 3.382813 10.894531 6.429688 16.742187 8.941407.226563.097656.433594.21875.648437.3125 1.824219.777343 3.738282 1.378906 5.601563 2.058593.351563.125.703125.261719 1.054687.382813v95.015625c-.007812 4.425781 3.578126 8 7.992188 8zm56-16h-48v-82.398438c.566406.109376 1.152344.152344 1.71875.253907 2.792969.527343 5.601562.953125 8.433594 1.273437.566406.0625 1.121094.191406 1.6875.246094.417968.039062.832031.03125 1.238281.074219 3.625.328125 7.257813.550781 10.921875.550781s7.296875-.222656 10.910156-.542969c.417969-.042969.832032-.023437 1.242188-.074219.566406-.054687 1.121094-.183593 1.6875-.246093 2.824218-.328125 5.632812-.753907 8.417968-1.273438.574219-.101562 1.167969-.144531 1.742188-.261719zm-119.976562-160c-5.152344-12.320312-8.023438-25.832031-8.023438-40v-32c0-57.34375 46.65625-104 104-104s104 46.65625 104 104v32c0 14.167969-2.871094 27.679688-8.023438 40zm53.886718 55.023438c-2.261718-1.007813-4.503906-2.0625-6.671875-3.222657-.765625-.410156-1.511719-.855469-2.261719-1.28125-2.089843-1.183593-4.144531-2.414062-6.136718-3.726562-.75-.496094-1.488282-1.023438-2.230469-1.535157-1.929687-1.355468-3.816406-2.753906-5.648437-4.226562-.722657-.574219-1.433594-1.167969-2.136719-1.765625-1.769531-1.503906-3.480469-3.066406-5.144531-4.679687-.6875-.664063-1.367188-1.328126-2.03125-2.019532-1.59375-1.628906-3.121094-3.328125-4.601563-5.0625-.640625-.75-1.292969-1.496094-1.917969-2.265625-1.417968-1.75-2.746094-3.566406-4.039062-5.40625-.59375-.832031-1.203125-1.648437-1.761719-2.503906-.289063-.433594-.527344-.894531-.816406-1.335937h174.992187c-.28125.441406-.527344.902343-.816406 1.335937-.566406.855469-1.175781 1.664063-1.757812 2.503906-1.296876 1.839844-2.632813 3.65625-4.042969 5.40625-.621094.769531-1.269531 1.515625-1.917969 2.265625-1.480469 1.734375-3.007812 3.433594-4.601562 5.0625-.664063.691406-1.351563 1.355469-2.039063 2.019532-1.664063 1.605468-3.367187 3.167968-5.136719 4.660156-.710937.609375-1.429687 1.203125-2.160156 1.785156-1.816406 1.464844-3.695312 2.855469-5.605469 4.199219-.753906.53125-1.503906 1.066406-2.28125 1.570312-1.96875 1.304688-4 2.519531-6.066406 3.6875-.78125.441407-1.550781.902344-2.34375 1.328125-2.132813 1.136719-4.328125 2.167969-6.542969 3.160156-.785156.351563-1.550781.734376-2.351562 1.0625-2.34375.976563-4.75 1.824219-7.175782 2.632813-.710937.238281-1.40625.519531-2.128906.742187-2.984375.921876-6.023437 1.699219-9.109375 2.355469-.585937.117188-1.1875.207031-1.769531.320313-2.433594.460937-4.902344.839844-7.390625 1.125-.984375.113281-1.960937.234375-2.945313.3125-2.726562.242187-5.488281.394531-8.273437.417968-.34375 0-.6875.039063-1.03125.039063s-.6875-.03125-1.039063-.039063c-2.785156-.023437-5.535156-.175781-8.257812-.417968-.984375-.085938-1.964844-.199219-2.949219-.320313-2.488281-.296875-4.953125-.664062-7.394531-1.128906-.589844-.109375-1.183594-.199219-1.765625-.316406-3.105469-.65625-6.160156-1.441407-9.160156-2.363281-.640625-.199219-1.257813-.445313-1.898438-.65625-2.503906-.820313-4.992187-1.710938-7.40625-2.71875-.769531-.3125-1.488281-.671876-2.234375-1zm0 0"/></svg>
