<?xml version="1.0" standalone="no"?>
<!DOCTYPE svg PUBLIC "-//W3C//DTD SVG 20010904//EN"
 "http://www.w3.org/TR/2001/REC-SVG-20010904/DTD/svg10.dtd">
<svg version="1.0" xmlns="http://www.w3.org/2000/svg"
 width="1265.000000pt" height="1265.000000pt" viewBox="0 0 1265.000000 1265.000000"
 preserveAspectRatio="xMidYMid meet">
<metadata>
Created by potrace 1.14, written by Peter Selinger 2001-2017
</metadata>
<g transform="translate(0.000000,1265.000000) scale(0.100000,-0.100000)"
fill="#000000" stroke="none">
<path d="M6058 12645 c-2 -2 -64 -6 -138 -10 -74 -3 -137 -8 -140 -10 -3 -1
-45 -6 -94 -10 -49 -4 -98 -8 -110 -10 -11 -2 -43 -6 -71 -10 -85 -10 -119
-15 -155 -21 -19 -4 -45 -8 -57 -9 -20 -3 -98 -16 -113 -20 -3 -1 -25 -5 -50
-9 -25 -5 -94 -19 -155 -33 -60 -14 -119 -27 -130 -29 -139 -27 -433 -116
-710 -214 -157 -56 -362 -144 -582 -251 -90 -44 -167 -79 -172 -79 -5 0 -11
-3 -13 -7 -1 -5 -28 -21 -58 -37 -287 -152 -643 -389 -940 -625 -272 -216
-611 -544 -837 -808 -118 -138 -131 -154 -262 -328 -151 -201 -315 -443 -382
-564 -33 -59 -48 -85 -98 -171 -66 -115 -291 -577 -291 -599 0 -5 -6 -22 -14
-38 -64 -128 -221 -587 -272 -791 -60 -244 -68 -280 -109 -483 -2 -9 -6 -34
-9 -55 -4 -22 -11 -64 -16 -94 -9 -57 -14 -91 -25 -175 -3 -27 -8 -63 -10 -80
-2 -16 -7 -59 -10 -95 -3 -36 -8 -78 -10 -95 -25 -202 -26 -904 -1 -1110 2
-16 7 -61 11 -100 3 -38 8 -81 10 -95 2 -14 7 -50 10 -80 4 -30 9 -62 10 -70
2 -8 6 -35 9 -60 6 -47 19 -120 37 -217 5 -32 13 -71 16 -88 34 -191 178 -711
233 -840 5 -11 14 -38 21 -60 6 -22 15 -44 19 -50 4 -5 11 -21 15 -35 12 -44
85 -220 151 -366 438 -969 1128 -1822 1994 -2466 152 -113 537 -368 555 -368
2 0 33 -18 70 -41 169 -102 553 -287 810 -389 210 -84 639 -224 748 -244 12
-2 58 -13 102 -24 80 -21 346 -76 418 -86 20 -3 54 -9 75 -12 20 -3 48 -7 62
-10 42 -7 260 -32 340 -39 41 -4 89 -9 105 -11 47 -5 359 -17 470 -17 215 1
530 18 695 38 286 35 388 51 585 92 924 191 1777 576 2531 1144 82 62 151 115
154 118 3 3 30 26 60 51 538 436 1073 1061 1425 1665 32 55 71 121 86 146 87
147 288 580 370 799 22 58 43 112 46 120 3 8 7 17 8 20 1 3 4 12 8 20 6 17 75
233 105 330 18 56 46 160 57 210 2 8 8 30 14 48 5 17 8 32 6 32 -2 0 2 18 10
40 8 22 14 41 13 43 -1 2 8 55 17 92 9 45 44 223 50 260 21 136 37 253 49 365
17 150 18 169 31 415 6 107 6 435 0 555 -9 218 -24 368 -60 635 -3 17 -7 50
-10 75 -9 73 -82 425 -114 555 -56 224 -128 451 -234 735 -100 267 -285 647
-454 935 -191 323 -511 760 -729 995 -18 19 -47 51 -64 70 -498 548 -1178
1057 -1845 1382 -55 27 -108 53 -119 59 -39 22 -273 121 -419 178 -240 92
-492 172 -747 235 -58 15 -251 58 -279 62 -18 3 -43 8 -55 10 -31 7 -233 41
-289 49 -27 3 -56 8 -65 10 -10 1 -48 6 -87 9 -38 4 -77 9 -85 11 -8 2 -60 7
-115 10 -55 4 -118 9 -140 12 -41 4 -663 12 -667 8z"/>
</g>
</svg>
