<?xml version="1.0" standalone="no"?>
<!DOCTYPE svg PUBLIC "-//W3C//DTD SVG 20010904//EN"
 "http://www.w3.org/TR/2001/REC-SVG-20010904/DTD/svg10.dtd">
<svg version="1.0" xmlns="http://www.w3.org/2000/svg"
 width="600.000000pt" height="600.000000pt" viewBox="0 0 600.000000 600.000000"
 preserveAspectRatio="xMidYMid meet">
<metadata>
Created by potrace 1.14, written by Peter Selinger 2001-2017
</metadata>
<g transform="translate(0.000000,600.000000) scale(0.100000,-0.100000)"
fill="#000000" stroke="none">
<path d="M117 5883 c-4 -3 -7 -1301 -7 -2883 0 -2408 2 -2879 14 -2889 10 -8
772 -10 2892 -9 l2879 3 3 2893 2 2892 -2888 0 c-1589 0 -2892 -3 -2895 -7z
m928 -543 c3 -11 5 -53 4 -92 l-2 -73 91 -3 92 -3 0 -89 0 -90 90 0 90 0 0
-90 0 -90 90 0 90 0 0 90 0 90 90 0 90 0 0 90 0 89 93 3 92 3 2 80 c1 44 2 86
2 93 1 9 45 12 186 12 l185 0 0 -835 0 -835 -185 0 c-141 0 -185 3 -185 13 0
6 0 297 0 645 l0 632 -89 0 -90 0 -3 -92 -3 -93 -87 0 -87 0 -3 -90 -3 -90
-95 0 -95 0 -3 90 -3 90 -87 0 -87 0 -3 93 -3 92 -87 0 -87 0 3 -622 c1 -343
0 -633 -3 -645 -5 -23 -7 -23 -190 -23 l-185 0 0 835 0 835 184 0 c176 0 185
-1 191 -20z m4205 -105 l65 -65 -2235 -2235 c-1229 -1229 -2239 -2235 -2245
-2235 -13 0 -125 112 -125 125 0 10 4460 4475 4470 4475 3 0 35 -29 70 -65z
m-1224 -2950 l2 -90 91 -3 91 -3 0 -89 0 -90 90 0 90 0 0 -90 0 -90 90 0 90 0
0 90 0 90 90 0 90 0 0 90 0 89 93 3 92 3 3 93 3 92 184 0 185 0 0 -835 0 -835
-185 0 -185 0 0 645 0 645 -90 0 -89 0 -3 -92 -3 -93 -85 0 -85 0 -5 -90 -5
-90 -95 0 -95 0 -5 90 -5 90 -85 0 -85 0 -3 93 -3 92 -87 0 -87 0 3 -622 c1
-343 0 -633 -3 -645 -5 -23 -7 -23 -190 -23 l-185 0 0 835 0 835 188 -2 187
-3 1 -90z"/>
</g>
</svg>
