<svg id="Capa_1" fill="whitesmoke" enable-background="new 0 0 512 512" height="512" viewBox="0 0 512 512" width="512" xmlns="http://www.w3.org/2000/svg"><g><g><path d="m409.729 242.385c-1.29-15.159 2.924-31.439 6.231-40.537 1.254-3.45-1.281-7.095-4.951-7.095h-51.8l-20.657-23.693h-56.628s-10.624-20.141-10.624-42.968c0-20.885-7.225-21.977-23.07-23.799 0 0 12.343-36.771 31.934-54.235 20.885-18.618 31.63-16.432 31.63-27.846 0-9.714-7.454-14.712-16.695-14.712-9.242 0-20.915 10.16-33.74 21.285-7.421 6.437-15.858 15.219-29.633 13.001-3.499-.563-6.917 1.311-8.215 4.609-2.174 5.523-5.813 12.73-10.007 12.73-3.932 0-8.35-2.598-11.378-4.79-2.687-1.945-6.329-1.901-8.996.071-6.659 4.924-16.931 16.758-14.595 42.117-13.272 5.376-23.29 14.006-28.204 18.815-1.726 1.688-1.887 4.427-.309 6.254l-21.137 2.442s5.081 113.026 6.509 141.965l277.702-10c-1.69-4.065-2.942-8.614-3.367-13.614z" fill="#f8e883"/><path d="m149.965 246.513s-7.821-10.124-7.372-16.144c.818-10.959 8.529-28.176 4.767-45.732-5.828-27.198-18.477-60.603-18.477-60.603l-7.094.82s11.09 21.694-9.795 34.808c0 0 9.538 17.777 15.366 44.976 3.762 17.555-3.949 34.773-4.767 45.732-.124 1.664.385 3.641 1.184 5.631l20.709 10z" fill="#eec06b"/><path d="m349.981 328.196 75.99-20 .399-.491c-4.278-5.283-9.491-9.881-15.192-14.478l11.624-8.592c3.895-2.879 4.435-8.508 1.132-12.051-3.611-3.874-7.895-9.486-10.84-16.583h-277.702c.233 4.729.369 7.48.369 7.48l-34.56 56.64 48.96 39.36s30.55 7.038 55.785 24.071l140.022-10z" fill="#5a86cc"/><path d="m213.59 361.135c-26.713-17.485-57.311-11.656-57.311-11.656l-47.854-31.03 36.061-62.449h-20.709c2.093 5.211 6.188 10.513 6.188 10.513l-19.913 34.484s-8.621-1.821-18.092 5.464c-10.772 8.286-7.052 29.707-7.052 29.707l51.371 33.311s20.171-3.841 42.056 4.072l27.611 10 23.737-10c-5.031-4.55-10.386-8.68-16.093-12.416z" fill="#3b68b0"/><path d="m349.981 328.196h59.74l16.25-20h-74.22z" fill="#3b68b0"/><path d="m345.124 383.078.843-9.527h-116.284c1.407.95-20.936 1.948-19.568 3.026 44.686 35.224 44.391 77.177 67.726 68.344 39.209-14.841 61.92 2.4 61.92 2.4l-18.634 35.038 32.331-10c4.037-15.57 8.455-32.612 10.548-40.686 4.371-16.861-1.397-38.881-18.882-48.595z" fill="#d97b7b"/><path d="m350.7 436.173s-9.307-9.955-26.86-9.955c-15.035 0-20.933 2.875-32.088 7.81-10.448 4.622-22.632-.137-27.221-10.599-9.127-20.805-20.67-37.052-34.849-49.878h-51.348c5.07 1.833 10.231 4.296 15.255 7.584 21.793 14.265 38.576 34.106 50.942 62.293 4.59 10.462 16.773 15.221 27.221 10.599 11.156-4.935 17.053-7.81 32.088-7.81 17.552 0 26.86 9.955 26.86 9.955l-19.574 36.185h23.313l10.685 12.142s3.941-15.199 8.333-32.142h-22.331z" fill="#d16161"/></g><g><path d="m331.049 499.858h-19.922c-2.643 0-5.09-1.391-6.442-3.66-1.353-2.27-1.412-5.084-.154-7.408l16.538-30.573c-3.544-2.1-9.323-4.5-17.227-4.5-12.881 0-22.175 4.126-29.054 7.169s-14.526 3.22-21.534.498c-7.022-2.727-12.559-8.034-15.59-14.943-1.664-3.793.062-8.217 3.855-9.881 3.795-1.664 8.217.062 9.881 3.855 1.418 3.232 4.005 5.713 7.284 6.987 3.265 1.268 6.78 1.071 10.035-.233 7.697-3.086 19.065-8.451 35.123-8.451 20.571 0 31.868 11.83 32.338 12.333 2.202 2.355 2.652 5.854 1.118 8.69l-13.587 25.117h10.729c2.155 0 4.207.927 5.63 2.545l1.343 1.526 15.333-59.14c3.479-13.422-.688-32.057-15.264-40.155-2.589-1.438-4.089-4.267-3.828-7.217l.121-1.366h-131.349c11.703 8.99 21.627 19.604 30.156 32.22 2.32 3.432 1.419 8.094-2.013 10.414-3.432 2.319-8.094 1.419-10.414-2.013-9.438-13.96-20.779-25.167-34.673-34.261-23.724-15.529-51.542-10.612-51.819-10.561-1.888.351-3.855-.035-5.465-1.078l-62.168-40.312c-3.476-2.254-4.466-6.898-2.212-10.374 2.009-3.097 5.916-4.22 9.203-2.833.75-7.617 3.313-16.312 10.366-21.737 7.042-5.417 13.821-6.911 18.426-7.176l15.266-26.436c-3.618-4.444-5.964-12.544-5.964-17.093 0-4.096 1.359-8.604 2.475-13.388 2.177-9.334 4.645-19.914 2.438-30.213-5.508-25.706-14.555-42.839-14.645-43.009-1.854-3.474-.709-7.796 2.625-9.89 6.355-3.991 9.371-9.158 9.219-15.797-.118-5.118-2.095-9.206-2.115-9.245-1.885-3.688-.424-8.206 3.265-10.092 3.688-1.885 8.206-.424 10.092 3.264 4.442 8.691 7.906 27.241-7.047 40.52 3.415 7.588 9.204 22.114 13.273 41.106 2.91 13.581-.088 26.435-2.497 36.763-.73 3.132-1.43 6.133-1.83 8.671h272.65c-.342-1.77-.601-3.596-.761-5.479-1.404-16.499 3.104-33.054 5.633-40.768h-48.679c-2.167 0-4.229-.938-5.653-2.571l-18.416-21.121h-11.38c-4.142 0-7.5-3.358-7.5-7.5s3.358-7.5 7.5-7.5h14.792c2.167 0 4.229.938 5.653 2.571l18.416 21.121h48.388c4.163 0 8.072 2.034 10.458 5.441 2.392 3.414 2.967 7.794 1.541 11.716-3.519 9.682-6.529 24.55-5.807 37.338.499 8.831 6.079 19.091 12.218 25.72 3.014 3.254 4.525 7.64 4.118 12.059-.409 4.432-2.696 8.492-6.277 11.138l-4.015 2.968c12.018 10.91 22.145 24.727 22.145 48.647 0 4.142-3.358 7.5-7.5 7.5s-7.5-3.358-7.5-7.5c0-9.003-1.71-16.018-4.65-21.908l-10.199 12.553c-1.424 1.753-3.563 2.771-5.821 2.771h-52.874l-1.359 15.355h9.063c4.142 0 7.5 3.358 7.5 7.5s-3.358 7.5-7.5 7.5h-10.391l-1.163 13.137c17.959 12.768 22.935 36.363 18.268 54.366l-18.881 72.828c-.696 2.687-2.82 4.77-5.521 5.413-2.701.644-5.536-.257-7.369-2.341zm-151.404-133.807h159.457l3.409-38.517c.342-3.871 3.585-6.839 7.471-6.839h56.169l10.377-12.771c.002-.002.004-.005.006-.007-3.035-3.058-6.435-5.926-10.064-8.853-1.809-1.459-2.839-3.673-2.791-5.997.049-2.323 1.172-4.492 3.041-5.873l11.625-8.592c.057-.042.231-.17.257-.454.024-.263-.104-.4-.152-.452-3.341-3.583-7.075-8.346-10.133-14.197h-271.484c.944 2.153.837 4.667-.374 6.764l-19.913 34.484c-1.671 2.894-4.735 4.405-7.971 3.606-.745-.101-6.001-.596-12.043 4.052-4.565 3.512-5.127 13.115-4.618 19.368l46.078 29.878c6.763-.815 23.509-1.857 41.653 4.4zm114.116-187.49h-11.836c-2.782 0-5.335-1.54-6.634-4-.469-.89-11.491-22.064-11.491-46.468 0-7.238-.96-11.697-2.854-13.253-2.171-1.784-7.709-2.42-13.572-3.094-2.248-.259-4.259-1.518-5.473-3.428s-1.5-4.265-.78-6.41c.53-1.579 13.216-38.871 34.053-57.446 9.469-8.441 16.913-12.819 22.348-16.015 6.773-3.983 6.773-4.239 6.773-6.233 0-5.961-5-7.212-9.195-7.212-6.403 0-18.228 10.257-28.66 19.307l-.165.143c-.608.528-1.224 1.071-1.848 1.624-7.502 6.631-17.775 15.708-33.892 13.117-1.746 4.275-6.925 17.434-17.03 17.434-4.772 0-10.08-2.091-15.776-6.214-.016-.012-.079-.019-.139.026-5.192 3.839-13.6 13.542-11.586 35.398.304 3.294-1.587 6.397-4.653 7.639-10.703 4.335-19.141 11.061-24.014 15.553 3.584 6.245 4.4 16.629 1.948 27.054-.949 4.031-4.987 6.531-9.019 5.583-4.032-.949-6.532-4.987-5.583-9.019 2.089-8.876.422-15.075-.388-16.212-4.095-4.74-3.769-11.994.79-16.456 4.593-4.494 13.619-12.359 25.647-18.188-.763-25.507 10.705-38.065 17.938-43.413 5.33-3.942 12.503-3.987 17.853-.116 2.571 1.861 4.796 3.423 5.915 3.188s2.242-3.093 4.094-7.799c2.594-6.591 9.333-10.402 16.385-9.267 9.116 1.467 15.166-3.882 21.574-9.547.66-.583 1.311-1.158 1.953-1.715l.165-.143c14.213-12.331 26.488-22.979 38.49-22.979 14.246 0 24.195 9.134 24.195 22.212 0 10.831-6.883 14.878-14.169 19.163-4.897 2.88-11.604 6.824-19.97 14.282-12.404 11.058-21.879 31.128-26.566 42.524 4.506.893 8.508 2.298 11.88 5.068 7.342 6.033 8.332 15.944 8.332 24.843 0 15.017 5.069 28.891 7.9 35.468h7.061c4.142 0 7.5 3.358 7.5 7.5s-3.359 7.501-7.501 7.501zm-164.847-158.042c-4.067-.785-6.728-4.718-5.943-8.786l1.091-5.654c.785-4.067 4.722-6.723 8.786-5.943 4.067.785 6.728 4.718 5.943 8.786l-1.091 5.654c-.785 4.067-4.719 6.727-8.786 5.943zm2.93 19.941-3.959 20.521c-.785 4.067-4.718 6.728-8.785 5.943s-6.728-4.718-5.943-8.785l3.959-20.521c.785-4.067 4.718-6.728 8.785-5.943s6.728 4.718 5.943 8.785z"/></g></g></svg>