<?xml version="1.0"?>
<svg xmlns="http://www.w3.org/2000/svg" id="Layer_1_copy" data-name="Layer 1 copy" viewBox="0 0 64 64" width="512" height="512"><path d="M33,49a1,1,0,0,0-1-1H29a1,1,0,0,0,0,2h3A1,1,0,0,0,33,49Z"/><path d="M39,50a1,1,0,0,0,0-2H36a1,1,0,0,0,0,2Z"/><path d="M4,55a8,8,0,1,0,8-8A8,8,0,0,0,4,55Zm14,0a6,6,0,1,1-6-6A6,6,0,0,1,18,55Z"/><path d="M55,47a8,8,0,1,0,8,8A8,8,0,0,0,55,47Zm0,14a6,6,0,1,1,6-6A6,6,0,0,1,55,61Z"/><path d="M23,54a1,1,0,0,0,0,2h7a1,1,0,0,0,0-2Z"/><path d="M1.29,47.29a1,1,0,1,0,1.41,1.41l7.53-7.53,12.89,5.25a1,1,0,0,0,1.29-.52L33,26.84,43.18,25a1,1,0,0,0,.53-.28L49,19.41V32.5L40.06,32a1,1,0,0,0-.83.37,1,1,0,0,0-.19.89l4,15h0L39.45,54H34a1,1,0,0,0,0,2h6a1,1,0,0,0,.85-.47L50.55,40H57a1,1,0,0,0,0-2H50a1,1,0,0,0-.85.47l-4.67,7.47L41.32,34.08l8.59.48.08,0h0l7.9.44A1,1,0,0,0,59,34V24a1,1,0,0,0-2,0v8.94l-6-.33V17.78l6-1.5V20a1,1,0,0,0,2,0V9.88l2.63,1.05a1,1,0,0,0,1.27-1.38l-4-8A1,1,0,0,0,57.82,1l-11,2a1,1,0,0,0-.19,1.91L51,6.68V10a4,4,0,0,0,4,4h2v.22L49.76,16a1,1,0,0,0-.46.27h0l-6.78,6.78L34,24.62l5.94-13.21h0a1,1,0,0,0,0-.19,1,1,0,0,0,0-.2h0V6a1,1,0,0,0-1-1H17a1,1,0,0,0,0,2H38v3H7V7h6a1,1,0,0,0,0-2H6A1,1,0,0,0,5,6v5a1,1,0,0,0,1,1H20.5L11.58,33.56,6.27,32a1,1,0,0,0-1.11.41l-4,6a1,1,0,1,0,1.66,1.11l3.59-5.39,4.39,1.25-1.66,4ZM57.44,3.12l2.49,5L50.6,4.36ZM55,12a2,2,0,0,1-2-2V7.48l4,1.6V12ZM22.67,12H37.45L35.8,15.68A5,5,0,1,0,31,22a4.94,4.94,0,0,0,2.2-.53L32.51,23H26a1,1,0,0,0-.91.58L19.45,35.8l-5.93-1.69ZM34,17a3,3,0,1,1-3-3A3,3,0,0,1,34,17ZM19.73,38a1,1,0,0,0,1.18-.54L26.64,25h5L23,44.21,11.31,39.45,12.75,36Z"/></svg>
