<?xml version="1.0" encoding="iso-8859-1"?>
<!-- Generator: Adobe Illustrator 19.0.0, SVG Export Plug-In . SVG Version: 6.00 Build 0)  -->
<svg version="1.1" id="Capa_1" xmlns="http://www.w3.org/2000/svg" xmlns:xlink="http://www.w3.org/1999/xlink" x="0px" y="0px"
	 viewBox="0 0 468.293 468.293" style="enable-background:new 0 0 468.293 468.293;" xml:space="preserve">
<g>
	<path style="fill:#EBF0F3;" d="M468.293,234.146c0,12.488-1.249,24.976-3.122,36.839c-3.122,18.107-7.493,35.59-14.361,51.824
		c-13.737,33.717-35.59,63.688-62.439,87.415c-41.21,36.215-94.907,58.068-154.224,58.068c-8.741,0-17.483-0.624-26.224-1.873
		c-53.698-6.244-102.4-29.971-138.615-66.185c-4.371-4.371-8.117-8.741-11.863-13.112C21.854,346.537,0,292.839,0,234.146
		c0-1.249,0-1.873,0-3.122c0.624-56.82,21.854-109.268,56.195-149.229c28.722-33.717,66.81-58.693,109.893-71.805
		C187.317,3.746,209.795,0,233.522,0c4.371,0,8.117,0.624,11.863,0.624c38.088,1.873,74.302,13.112,105.522,31.22
		c43.083,24.976,77.424,63.063,97.405,109.268C461.424,169.834,468.293,201.054,468.293,234.146z"/>
	<path style="fill:#EBF0F3;" d="M239.766,246.01c1.873-6.868,3.122-13.737,4.371-20.605c-6.244,2.498-12.488,5.62-19.356,9.366
		C229.776,238.517,234.771,242.263,239.766,246.01z"/>
	<path style="fill:#EBF0F3;" d="M246.01,0.624c-3.746,0-8.117-0.624-11.863-0.624c-23.727,0-46.205,3.746-67.434,9.99
		c-6.244,23.102-11.863,55.571-9.99,89.912c29.971-24.351,93.034-63.688,194.81-68.059C320.312,13.737,284.722,2.498,246.01,0.624z"
		/>
</g>
<path style="fill:#E1E6E9;" d="M448.937,141.112c-19.98-46.205-54.322-84.293-97.405-109.268
	c-101.776,4.371-164.839,43.707-194.81,68.059c1.873,23.727,7.493,48.078,18.732,71.805
	C209.795,137.99,292.215,86.166,448.937,141.112z"/>
<g>
	<path style="fill:#D5D6DB;" d="M176.078,171.707c10.615,21.854,26.224,43.707,49.327,62.439c6.244-3.746,13.112-6.868,19.356-9.366
		c97.405-40.585,177.327,8.117,220.41,46.205c1.873-11.863,3.122-24.351,3.122-36.839c0-33.093-6.868-64.312-19.356-93.034
		C292.215,86.166,209.795,137.99,176.078,171.707z"/>
	<path style="fill:#D5D6DB;" d="M325.307,209.795c-24.976-0.624-51.824,3.122-80.546,15.61c-1.249,7.493-2.498,14.361-4.371,20.605
		C212.917,355.278,131.746,390.244,69.307,400.234c36.215,36.215,84.917,60.566,138.615,66.185
		C322.81,389.62,328.429,264.117,325.307,209.795z"/>
</g>
<path style="fill:#E1E6E9;" d="M388.371,222.907c-19.356-7.493-40.585-12.488-63.063-13.112
	c3.746,54.322-1.873,179.824-116.761,256.624c8.741,1.249,17.483,1.249,26.224,1.249c59.317,0,113.015-21.854,154.224-58.068
	C395.863,337.171,390.868,257.873,388.371,222.907z"/>
<path style="fill:#EBF0F3;" d="M388.371,222.907c2.498,34.966,7.493,114.263,0,187.317c26.849-23.727,48.702-53.073,62.439-86.79
	c6.868-16.234,11.239-33.717,14.361-51.824C445.815,254.127,419.59,235.395,388.371,222.907z"/>
<path style="fill:#D5D6DB;" d="M207.298,319.688c13.737-19.98,25.6-43.707,32.468-73.678c-5.62-3.746-9.99-7.493-14.985-11.863
	C140.488,163.59,152.351,63.688,166.712,9.99C123.629,23.102,85.541,48.078,56.82,81.795
	C67.434,152.351,102.4,295.337,207.298,319.688z"/>
<path style="fill:#EBF0F3;" d="M0,231.024c0,1.249,0,1.873,0,3.122c0,58.693,21.854,112.39,57.444,152.976
	c3.746,4.371,7.493,8.741,11.863,13.112c23.727-3.746,49.951-11.239,74.927-24.351C77.424,334.673,27.473,270.985,0,231.024z"/>
<path style="fill:#E1E6E9;" d="M144.234,375.883c23.102-12.488,45.58-30.595,63.063-56.195
	C102.4,295.337,67.434,152.976,56.82,81.795C21.854,121.756,0.624,174.205,0,231.024C27.473,270.985,77.424,334.673,144.234,375.883
	z"/>
<g>
</g>
<g>
</g>
<g>
</g>
<g>
</g>
<g>
</g>
<g>
</g>
<g>
</g>
<g>
</g>
<g>
</g>
<g>
</g>
<g>
</g>
<g>
</g>
<g>
</g>
<g>
</g>
<g>
</g>
</svg>
