<svg id="Capa_1" enable-background="new 0 0 512.009 512.009" height="512" viewBox="0 0 512.009 512.009" width="512" xmlns="http://www.w3.org/2000/svg"><g><g><path d="m425.074 115.224-28.29-28.29c-21.27-17.73-45.93-31.52-72.88-40.25h-135.8c-26.95 8.73-51.61 22.52-72.88 40.25l-28.29 28.29c-17.73 21.27-31.52 45.93-40.25 72.88v135.8c8.73 26.95 22.52 51.61 40.25 72.88l28.29 28.29c21.27 17.73 45.93 31.52 72.88 40.25h135.8c26.95-8.73 51.61-22.52 72.88-40.25l28.29-28.29c17.73-21.27 31.52-45.93 40.25-72.88v-135.8c-8.73-26.95-22.52-51.61-40.25-72.88z" fill="#ff9256"/><path d="m496.144 185.564c7.81 7.81 7.81 20.48 0 28.29l-42.15 42.15 42.15 42.15c7.81 7.81 7.81 20.48 0 28.29s-20.47 7.81-28.28 0c-52.844-52.856-38.254-38.263-42.15-42.16l-56.57 56.57c1.373 1.374-11.358-11.359 70.43 70.44 7.81 7.81 7.81 20.47 0 28.28s-20.47 7.81-28.28 0c-81.782-81.77-69.073-69.063-70.44-70.43l-56.57 56.57c2.033 2.033-10.696-10.694 42.16 42.15 7.81 7.81 7.81 20.47 0 28.28s-20.48 7.81-28.29 0l-42.15-42.15-42.15 42.15c-7.81 7.81-20.48 7.81-28.29 0s-7.81-20.47 0-28.28c52.856-52.844 38.263-38.254 42.16-42.15l-56.57-56.57c-1.374 1.373 11.359-11.358-70.44 70.43-7.81 7.81-20.47 7.81-28.28 0s-7.81-20.47 0-28.28c81.77-81.782 69.063-69.073 70.43-70.44l-56.57-56.57c-2.033 2.033 10.694-10.696-42.15 42.16-7.81 7.81-20.47 7.81-28.28 0s-7.81-20.48 0-28.29l42.15-42.15-42.15-42.15c-7.81-7.81-7.81-20.48 0-28.29s20.47-7.81 28.28 0l42.15 42.16 56.57-56.57c-1.373-1.374 11.358 11.359-70.43-70.44-7.81-7.81-7.81-20.47 0-28.28s20.47-7.81 28.28 0c81.782 81.77 69.073 69.063 70.44 70.43l56.57-56.57c-2.033-2.033 10.696 10.694-42.16-42.15-7.81-7.81-7.81-20.47 0-28.28s20.48-7.81 28.29 0l42.15 42.15 42.15-42.15c7.81-7.81 20.48-7.81 28.29 0s7.81 20.47 0 28.28c-52.856 52.844-38.263 38.254-42.16 42.15l56.57 56.57c1.374-1.373-11.359 11.358 70.44-70.43 7.81-7.81 20.47-7.81 28.28 0s7.81 20.47 0 28.28c-81.77 81.782-69.063 69.073-70.43 70.44l56.57 56.57c2.033-2.033-10.694 10.696 42.15-42.16 7.81-7.81 20.47-7.81 28.28 0zm-155.29 127.01 56.57-56.57-56.57-56.57-56.57 56.57zm-84.85-84.85 56.57-56.57-56.57-56.57-56.57 56.57zm0 169.7 56.57-56.57-56.57-56.57-56.57 56.57zm-84.85-84.85 56.57-56.57-56.57-56.57-56.57 56.57z" fill="#ffda8f"/></g><g><path d="m8.793 333.515c8.988 8.988 22.15 11.024 33.005 6.381 7.868 20.117 18.502 38.927 31.748 56.143l-8.183 8.184c-11.695 11.696-11.695 30.726 0 42.422 11.722 11.72 30.696 11.727 42.42.002l8.187-8.185c17.221 13.249 36.037 23.886 56.159 31.754-4.658 10.935-2.542 24.093 6.364 33 11.724 11.722 30.706 11.725 42.433 0l35.079-35.079 35.079 35.079c11.723 11.723 30.706 11.726 42.433 0 8.906-8.906 11.022-22.064 6.364-32.999 20.122-7.868 38.937-18.504 56.157-31.752l8.186 8.181c11.723 11.723 30.696 11.726 42.423 0 11.695-11.696 11.695-30.726.002-42.419l-8.185-8.187c13.246-17.216 23.88-36.026 31.748-56.143 10.828 4.631 23.99 2.633 33.005-6.381 11.722-11.722 11.726-30.708 0-42.432l-35.079-35.079 35.079-35.079c11.722-11.722 11.726-30.708 0-42.432-8.988-8.988-22.151-11.024-33.005-6.381-7.868-20.117-18.502-38.927-31.748-56.143l8.183-8.184c11.695-11.696 11.695-30.726 0-42.422-11.722-11.72-30.696-11.727-42.42-.002l-8.187 8.185c-17.221-13.25-36.037-23.886-56.159-31.754 4.658-10.935 2.542-24.093-6.364-33-11.724-11.722-30.706-11.725-42.433 0l-35.079 35.079-35.08-35.079c-11.723-11.723-30.706-11.726-42.433 0-8.906 8.906-11.022 22.063-6.364 32.999-20.123 7.868-38.938 18.504-56.159 31.754l-8.184-8.182c-11.723-11.723-30.696-11.726-42.423 0-11.695 11.696-11.695 30.726-.002 42.419l8.185 8.187c-13.246 17.216-23.88 36.026-31.748 56.143-10.837-4.635-23.999-2.624-33.005 6.381-11.722 11.722-11.726 30.708 0 42.432l35.079 35.079-35.078 35.078c-11.722 11.722-11.725 30.708 0 42.432zm49.368-6.947 28.134-28.141 42.427 42.427-40.908 40.914c-12.653-16.872-22.595-35.378-29.653-55.2zm127.279 127.28c-19.822-7.058-38.327-17-55.201-29.653l40.915-40.908 42.427 42.427zm112.987-28.135 42.427-42.427 40.911 40.911c-16.872 12.652-35.376 22.593-55.196 29.65zm84.86-84.859 42.427-42.427 28.134 28.141c-7.058 19.822-17 38.328-29.653 55.201zm70.561-155.413-28.134 28.141-42.427-42.427 40.908-40.914c12.653 16.872 22.595 35.378 29.653 55.2zm-127.28-127.28c19.822 7.058 38.327 17 55.201 29.653l-40.915 40.908-42.427-42.427zm-141.128 0 28.141 28.134-42.427 42.427-40.914-40.908c16.873-12.653 35.378-22.595 55.2-29.653zm-56.718 112.993-42.427 42.427-28.134-28.141c7.058-19.822 17-38.328 29.653-55.201zm-105.786 134.071 42.149-42.15c3.905-3.905 3.905-10.237 0-14.142l-42.149-42.15c-3.908-3.908-3.908-10.239 0-14.148 3.908-3.907 10.228-3.907 14.137 0l42.149 42.16c3.914 3.913 10.246 3.899 14.144.001l56.57-56.57c3.903-3.904 3.904-10.238 0-14.143l-70.431-70.439c-3.897-3.898-3.897-10.24 0-14.138 3.898-3.898 10.218-3.918 14.141.002l70.438 70.428c3.906 3.905 10.236 3.905 14.143 0l56.569-56.57c3.902-3.904 3.905-10.239-.001-14.143l-42.159-42.149c-3.897-3.898-3.897-10.241 0-14.138 3.908-3.908 10.239-3.908 14.147 0l42.15 42.15c3.906 3.905 10.236 3.905 14.143 0l42.15-42.15c3.909-3.908 10.239-3.907 14.147 0 3.897 3.898 3.897 10.241 0 14.138l-42.159 42.149c-3.904 3.902-3.905 10.237-.001 14.143l56.569 56.57c3.906 3.905 10.236 3.905 14.143 0l70.44-70.43c3.909-3.908 10.23-3.907 14.138 0 3.897 3.898 3.897 10.24-.002 14.141l-70.429 70.437c-3.903 3.904-3.904 10.238 0 14.143l56.57 56.57c3.905 3.904 10.238 3.904 14.144-.001l42.149-42.16c3.908-3.907 10.228-3.908 14.137 0 3.908 3.908 3.908 10.239 0 14.148l-42.149 42.15c-3.905 3.905-3.905 10.237 0 14.142l42.149 42.15c3.908 3.908 3.908 10.239 0 14.148-3.908 3.907-10.228 3.907-14.137 0l-42.149-42.16c-4.086-4.085-10.409-3.736-14.144-.001l-56.57 56.57c-3.903 3.904-3.904 10.238 0 14.143l70.431 70.439c3.897 3.898 3.897 10.24 0 14.138-3.898 3.898-10.218 3.918-14.141-.002l-70.438-70.428c-3.906-3.905-10.236-3.905-14.143 0l-56.569 56.57c-3.902 3.905-3.905 10.239.001 14.143 5.866 5.865 32.875 32.867 42.159 42.149 3.897 3.898 3.897 10.241 0 14.138-3.908 3.908-10.239 3.908-14.147 0l-42.15-42.15c-3.906-3.905-10.236-3.905-14.143 0l-42.15 42.15c-3.909 3.908-10.239 3.907-14.147 0-3.897-3.898-3.897-10.241 0-14.138 9.373-9.371 36.312-36.303 42.159-42.149 3.904-3.902 3.905-10.237.001-14.143l-56.569-56.57c-3.905-3.904-10.235-3.905-14.143 0l-70.44 70.43c-3.909 3.908-10.23 3.907-14.138 0-3.897-3.898-3.897-10.24.002-14.141l70.429-70.437c3.903-3.904 3.904-10.238 0-14.143l-56.57-56.57c-3.905-3.904-10.238-3.904-14.144.001l-42.149 42.16c-3.908 3.907-10.228 3.908-14.137 0-3.908-3.908-3.908-10.239 0-14.148z"/><path d="m277.213 263.075 56.569 56.57c3.904 3.903 10.236 3.905 14.143 0l56.57-56.57c3.903-3.904 3.904-10.238 0-14.143l-56.57-56.57c-3.905-3.903-10.237-3.904-14.143 0l-56.569 56.57c-3.905 3.906-3.905 10.238 0 14.143zm63.641-49.498 42.428 42.428-42.428 42.428-42.428-42.428z"/><path d="m248.933 234.796c3.906 3.905 10.236 3.905 14.143 0l56.57-56.57c3.903-3.904 3.904-10.238 0-14.143l-56.57-56.57c-3.906-3.905-10.236-3.905-14.143 0l-56.57 56.57c-3.903 3.904-3.904 10.238 0 14.143zm7.071-106.069 42.428 42.428-42.428 42.428-42.428-42.428z"/><path d="m164.083 319.646c3.905 3.903 10.237 3.904 14.143 0l56.569-56.57c3.905-3.905 3.905-10.237 0-14.142l-56.569-56.57c-3.904-3.903-10.236-3.905-14.143 0l-56.57 56.57c-3.903 3.904-3.904 10.238 0 14.143zm7.072-106.069 42.428 42.428-42.428 42.428-42.428-42.428z"/><circle cx="256.004" cy="286.003" r="10"/><path d="m295.729 309.866c-3.906-3.905-10.236-3.905-14.143 0-3.905 3.905-3.905 10.237 0 14.143l16.846 16.846-42.428 42.428-42.428-42.428 16.846-16.846c3.905-3.905 3.905-10.237 0-14.143-3.906-3.905-10.236-3.905-14.143 0l-23.917 23.917c-3.903 3.904-3.904 10.238 0 14.143l56.57 56.57c3.906 3.905 10.236 3.905 14.143 0l56.57-56.57c3.903-3.904 3.904-10.238 0-14.143z"/></g></g></svg>