<svg height="368pt" viewBox="0 0 368 368" width="368pt" xmlns="http://www.w3.org/2000/svg"><path d="m360 96h-36.222656l-19.960938-89.734375c-.824218-3.664063-4.0625-6.265625-7.816406-6.265625h-224c-3.753906 0-6.992188 2.601562-7.816406 6.265625l-19.960938 89.734375h-36.222656c-4.425781 0-8 3.585938-8 8v64c0 4.414062 3.574219 8 8 8h18.496094l-26.3125 118.265625c-.054688.261719.03125.519531.007812.78125-.039062.328125-.191406.617187-.191406.953125v64c0 4.425781 3.574219 8 8 8h352c4.425781 0 8-3.574219 8-8v-64c0-.335938-.152344-.625-.191406-.953125-.03125-.261719.0625-.519531.007812-.78125l-26.3125-118.265625h18.496094c4.425781 0 8-3.585938 8-8v-64c0-4.414062-3.574219-8-8-8zm-168-80h97.585938l17.796874 80h-115.382812zm-113.585938 0h97.585938v80h-115.382812zm-35.527343 160h133.113281v112h-158.023438zm309.113281 176h-336v-48h336zm-1.976562-64h-158.023438v-112h133.113281zm1.976562-128h-336v-48h336zm0 0"/></svg>