<svg id="Layer_1_copy" height="512" viewBox="0 0 64 64" width="512" xmlns="http://www.w3.org/2000/svg" data-name="Layer 1 copy"><circle cx="12" cy="55" fill="#fdca2f" r="7"/><circle cx="55" cy="55" fill="#fdca2f" r="7"/><circle cx="31" cy="17" fill="#edba70" r="4"/><path d="m6 6h33v5h-33z" fill="#e72b3f"/><path d="m8 9h29v-1h-29z" fill="#e72b3f"/><path d="m58 15-8 2v16.57l8 .43z" fill="#fdca2f"/><path d="m52 31.67 4 .22v-14.33l-4 1z" fill="#fdca2f"/><path d="m52 6.06v3.94a3 3 0 0 0 3 3h3v-6.94z" fill="#edba70"/><path d="m47 4 15 6-4-8z" fill="#e72b3f"/><path d="m6 33.13 2.15 6.1 14.85 5.9 9.75-20.63-6.87-.5-5.88 13z" fill="#e72b3f"/><g fill="#032030"><path d="m32 50h-3a1 1 0 0 1 0-2h3a1 1 0 0 1 0 2z"/><path d="m39 50h-3a1 1 0 0 1 0-2h3a1 1 0 0 1 0 2z"/><path d="m12 63a8 8 0 1 1 8-8 8 8 0 0 1 -8 8zm0-14a6 6 0 1 0 6 6 6 6 0 0 0 -6-6z"/><path d="m55 63a8 8 0 1 1 8-8 8 8 0 0 1 -8 8zm0-14a6 6 0 1 0 6 6 6 6 0 0 0 -6-6z"/><path d="m40 56h-6a1 1 0 0 1 0-2h5.45l9.71-15.53a1 1 0 0 1 .84-.47h7a1 1 0 0 1 0 2h-6.45l-9.7 15.53a1 1 0 0 1 -.85.47z"/><path d="m30 56h-7a1 1 0 0 1 0-2h7a1 1 0 0 1 0 2z"/><path d="m2 49a1 1 0 0 1 -.71-1.71l8-8a1 1 0 0 1 1.08-.22l12.63 5.14 15.1-33.62a1 1 0 1 1 1.82.82l-15.5 34.5a1 1 0 0 1 -1.29.52l-12.89-5.25-7.53 7.53a1 1 0 0 1 -.71.29z"/><path d="m32.18 27-.36-2 10.69-1.94 6.78-6.78 1.41 1.41-7 7a1 1 0 0 1 -.53.28z"/><path d="m39 12h-33a1 1 0 0 1 -1-1v-5a1 1 0 0 1 1-1h7a1 1 0 0 1 0 2h-6v3h31v-3h-21a1 1 0 0 1 0-2h22a1 1 0 0 1 1 1v5a1 1 0 0 1 -1 1z"/><path d="m.31 24.5h31.38v2h-31.38z" transform="matrix(.383 -.924 .924 .383 -13.68 30.52)"/><path d="m62 11a1 1 0 0 1 -.37-.07l-15-6a1 1 0 0 1 .19-1.93l11-2a1 1 0 0 1 1.07.54l4 8a1 1 0 0 1 -.89 1.46zm-11.4-6.64 9.33 3.73-2.49-5z"/><path d="m44 49a1 1 0 0 1 -1-.74l-4-15a1 1 0 0 1 .19-.89 1 1 0 0 1 .83-.37l16.98.94v-8.94a1 1 0 0 1 2 0v10a1 1 0 0 1 -1.06 1l-16.62-.92 3.68 13.66a1 1 0 0 1 -.74 1.26 1 1 0 0 1 -.26 0z"/><path d="m58 21a1 1 0 0 1 -1-1v-11.6a1 1 0 0 1 2 0v11.6a1 1 0 0 1 -1 1z"/><path d="m2 40a1 1 0 0 1 -.83-1.55l4-6a1 1 0 0 1 1.1-.45l13.18 3.8 5.64-12.22a1 1 0 0 1 .91-.58h7a1 1 0 0 1 0 2h-6.36l-5.73 12.42a1 1 0 0 1 -1.18.54l-13.3-3.8-3.6 5.39a1 1 0 0 1 -.83.45z"/><path d="m50 34.57a1 1 0 0 1 -1-1v-16.57a1 1 0 0 1 .76-1l8-2a1 1 0 1 1 .48 2l-7.24 1.78v15.79a1 1 0 0 1 -1 1z"/><path d="m58 14h-3a4 4 0 0 1 -4-4v-3.94h2v3.94a2 2 0 0 0 2 2h3z"/><path d="m31 22a5 5 0 1 1 5-5 5 5 0 0 1 -5 5zm0-8a3 3 0 1 0 3 3 3 3 0 0 0 -3-3z"/></g></svg>